<svg version="1.2" baseProfile="tiny-ps" xmlns="http://www.w3.org/2000/svg" viewBox="0 0 442 128" width="442" height="128">
	<title>New Project</title>
	<style>
		tspan { white-space:pre }
	</style>
	<path id="SIMUI." fill="#1a3858" aria-label="SIMUI."  d="m44.95 120.55c24.15 0 37.65-10.65 37.65-27.9c0-10.95-6-17.85-19.65-25.8l-18.45-10.95c-9.45-5.55-15.6-9.9-15.6-18.3c0-9 6.75-14.55 17.55-14.55c15.15 0 24.6 7.95 28.05 28.8h4.2v-17.55c0-11.4-17.55-18-33.9-18c-20.55 0-33.6 9.9-33.6 25.65c0 10.95 4.95 18.9 18.6 26.85l18.45 11.1c9.6 5.85 15.45 10.8 15.45 19.35c0 9.6-7.5 14.55-18.9 14.55c-16.8 0-26.4-7.95-29.55-28.8h-4.2v17.55c0 11.4 17.55 18 33.9 18zm215.85 4.2v-3.75c-8.4-1.65-10.95-10.35-10.95-28.5v-73.5h-19.65l-30.75 73.65l-36.3-73.65h-18.3v99h7.5v-81.6l40.2 81.6h4.95l32.85-78.6v53.1c0 22.65 8.7 32.25 30.45 32.25zm130.95-6.75h18v-4.5h-1.5c-9 0-10.5-6-10.5-15v-79.5h-19.5v79.5c0 15.15 3 19.5 13.5 19.5zm37.05 2.1c5.85 0 9.15-3.75 9.15-9.15c0-5.4-3.3-9.15-9.15-9.15c-5.85 0-9.15 3.75-9.15 9.15c0 5.4 3.3 9.15 9.15 9.15z" />
	<path id="SIMUI." fill="#4786c8" aria-label="SIMUI."  d="m113.5 118h18v-4.5h-1.5c-9 0-10.5-6-10.5-15v-79.5h-19.5v79.5c0 15.15 3 19.5 13.5 19.5z" />
	<path id="SIMUI." fill="#3577bd" aria-label="SIMUI."  d="m316.6 119.5c29.25 0 39.75-16.5 39.75-44.7v-55.8h-7.5v55.8c0 26.25-8.85 37.95-29.25 37.95c-15.75 0-23.7-12.6-23.85-33.45l-0.15-40.8c0-14.85-3-19.5-13.5-19.5h-16.5v4.5h1.35c7.8 0.6 9.15 6.45 9.15 15v36.3c0 29.85 13.5 44.7 40.5 44.7z" />
</svg>